<svg width="161" height="32" viewBox="0 0 161 32" fill="none" xmlns="http://www.w3.org/2000/svg">
<path d="M38.0751 12.1142C38.7556 11.051 39.6275 10.2068 40.6908 9.5814C41.7753 8.95603 42.9449 8.64334 44.1995 8.64334V14.3655H42.6365C41.1905 14.3655 40.0634 14.6678 39.2554 15.2723C38.4685 15.8769 38.0751 16.8983 38.0751 18.3367V26.279H32.6206V8.83095H38.0751V12.1142ZM64.9831 17.0859C64.9831 17.5237 64.93 18.0031 64.8236 18.5243H52.4792C52.5429 19.8376 52.8832 20.7861 53.4999 21.3698C54.1166 21.9326 54.9034 22.214 55.8603 22.214C56.6684 22.214 57.3383 22.016 57.8699 21.6199C58.4015 21.2238 58.7524 20.7131 58.9225 20.0877H64.696C64.4621 21.3176 63.9518 22.4225 63.1649 23.4022C62.3781 24.3611 61.3787 25.122 60.1665 25.6849C58.9544 26.2269 57.6041 26.4979 56.1155 26.4979C54.3718 26.4979 52.8194 26.1435 51.4584 25.4347C50.1187 24.7051 49.0661 23.6628 48.3005 22.3078C47.535 20.9528 47.1522 19.3686 47.1522 17.555C47.1522 15.7205 47.5244 14.1362 48.2686 12.8021C49.0342 11.4471 50.0974 10.4152 51.4584 9.70648C52.8194 8.97687 54.3718 8.61207 56.1155 8.61207C57.8805 8.61207 59.4329 8.96645 60.7726 9.67521C62.1123 10.384 63.1437 11.3846 63.8667 12.677C64.611 13.9486 64.9831 15.4183 64.9831 17.0859ZM59.4648 16.2729C59.4861 15.1264 59.1671 14.2717 58.5079 13.7089C57.8699 13.1252 57.0724 12.8334 56.1155 12.8334C55.116 12.8334 54.2867 13.1252 53.6275 13.7089C52.9683 14.2926 52.5961 15.1473 52.5111 16.2729H59.4648ZM79.5013 21.6824V26.279H77.0451C74.9611 26.279 73.3343 25.7787 72.1647 24.7781C71.0164 23.7566 70.4423 22.0785 70.4423 19.7438V13.3337H68.0499V8.83095H70.4423V4.54712H75.8968V8.83095H79.4694V13.3337H75.8968V19.8376C75.8968 20.5255 76.035 21.005 76.3115 21.276C76.6092 21.5469 77.0983 21.6824 77.7788 21.6824H79.5013ZM101.865 8.83095V26.279H96.3788V23.1208C95.8684 24.1423 95.1029 24.9553 94.0821 25.5598C93.0827 26.1643 91.9131 26.4666 90.5734 26.4666C88.5319 26.4666 86.9051 25.7995 85.693 24.4654C84.5021 23.1312 83.9067 21.2968 83.9067 18.9621V8.83095H89.3293V18.3054C89.3293 19.4936 89.6377 20.4213 90.2544 21.0883C90.8923 21.7346 91.7429 22.0577 92.8062 22.0577C93.912 22.0577 94.7839 21.7137 95.4218 21.0258C96.0598 20.3379 96.3788 19.3581 96.3788 18.0865V8.83095H101.865ZM112.674 12.1142C113.354 11.051 114.226 10.2068 115.289 9.5814C116.374 8.95603 117.543 8.64334 118.798 8.64334V14.3655H117.235C115.789 14.3655 114.662 14.6678 113.854 15.2723C113.067 15.8769 112.674 16.8983 112.674 18.3367V26.279H107.219V8.83095H112.674V12.1142ZM133.968 8.64334C136.009 8.64334 137.626 9.31041 138.816 10.6445C140.029 11.9787 140.635 13.8131 140.635 16.1479V26.279H135.18V16.7732C135.18 15.6059 134.861 14.6991 134.223 14.0528C133.606 13.3858 132.777 13.0522 131.735 13.0522C130.629 13.0522 129.747 13.3962 129.088 14.0841C128.45 14.772 128.131 15.7518 128.131 17.0234V26.279H122.676V8.83095H128.131V12.0204C128.641 10.9781 129.396 10.1547 130.395 9.55013C131.416 8.9456 132.607 8.64334 133.968 8.64334ZM152.302 8.61207C154.556 8.61207 156.353 9.16449 157.693 10.2693C159.054 11.3742 159.904 12.8334 160.245 14.647H155.141C154.992 13.9382 154.652 13.3858 154.12 12.9897C153.61 12.5728 152.961 12.3643 152.174 12.3643C151.558 12.3643 151.09 12.4998 150.771 12.7708C150.452 13.021 150.293 13.3858 150.293 13.8652C150.293 14.4072 150.58 14.8137 151.154 15.0847C151.749 15.3557 152.674 15.6267 153.929 15.8977C155.29 16.2104 156.406 16.5335 157.278 16.867C158.15 17.1797 158.905 17.7009 159.543 18.4305C160.181 19.1601 160.5 20.1399 160.5 21.3698C160.5 22.3704 160.223 23.2563 159.671 24.0276C159.118 24.7989 158.32 25.4034 157.278 25.8412C156.236 26.279 155.003 26.4979 153.578 26.4979C151.175 26.4979 149.251 25.9767 147.805 24.9344C146.358 23.8921 145.476 22.4016 145.157 20.463H150.42C150.505 21.2134 150.824 21.7867 151.377 22.1827C151.951 22.5788 152.685 22.7769 153.578 22.7769C154.195 22.7769 154.663 22.6414 154.982 22.3704C155.3 22.0785 155.46 21.7033 155.46 21.2447C155.46 20.6402 155.162 20.2128 154.567 19.9627C153.993 19.6917 153.046 19.4102 151.728 19.1184C150.41 18.8474 149.325 18.5556 148.474 18.2429C147.624 17.9302 146.89 17.4299 146.273 16.742C145.657 16.0332 145.348 15.0743 145.348 13.8652C145.348 12.3018 145.954 11.0406 147.167 10.0817C148.379 9.10195 150.091 8.61207 152.302 8.61207Z" fill="white"/>
<path d="M19.9103 15.9298C21.8506 16.532 23.3089 17.5234 24.285 18.9039C25.2928 20.286 25.7454 21.9352 25.643 23.8515C25.4964 26.5933 24.2709 28.6884 21.9664 30.1369C19.6634 31.5558 16.5448 32.1641 12.6105 31.9623C8.67615 31.7601 5.63944 30.8352 3.50042 29.188C1.36297 27.5117 0.367529 25.3023 0.514111 22.5605C0.616563 20.6442 1.24264 19.0504 2.39233 17.7792C3.5436 16.4784 5.11543 15.6427 7.10781 15.272C5.45773 14.596 4.18986 13.6145 3.3042 12.3273C2.42012 11.0107 2.023 9.51216 2.11284 7.8317C2.25154 5.23729 3.40813 3.24209 5.58259 1.84608C7.75707 0.450097 10.6687 -0.154156 14.3174 0.0332832C17.9662 0.220723 20.7974 1.12005 22.8112 2.73119C24.8248 4.34234 25.7623 6.44513 25.6236 9.03955C25.5322 10.7495 24.9766 12.2139 23.9571 13.4327C22.9374 14.6515 21.5885 15.4839 19.9103 15.9298ZM14.0787 4.49979C10.1126 4.29603 8.04918 5.69774 7.88842 8.70486C7.80804 10.2084 8.23837 11.3835 9.17939 12.23C10.1537 13.0487 11.6245 13.5086 13.5916 13.6097C15.5588 13.7107 17.0547 13.4033 18.0792 12.6873C19.1371 11.9434 19.7062 10.8197 19.7866 9.31614C19.9474 6.30898 18.0447 4.70353 14.0787 4.49979ZM12.8492 27.4957C17.3864 27.7288 19.7393 26.268 19.908 23.1134C20.0766 19.9589 17.8924 18.265 13.3552 18.0319C8.81803 17.7988 6.46514 19.2596 6.29647 22.4141C6.12783 25.5687 8.31209 27.2626 12.8492 27.4957Z" fill="white"/>
</svg>
